<?xml version="1.0" encoding="UTF-8"?>
<svg width="89px" height="24px" viewBox="0 0 89 24" version="1.1" xmlns="http://www.w3.org/2000/svg" xmlns:xlink="http://www.w3.org/1999/xlink">
    <!-- Generator: Sketch 48.2 (47327) - http://www.bohemiancoding.com/sketch -->
    <title>Logo/Full/Treatment</title>
    <desc>Created with Sketch.</desc>
    <defs></defs>
    <g id="Symbols" stroke="none" stroke-width="1" fill="none" fill-rule="evenodd">
        <g id="Logo/Full/Treatment">
            <g id="Logo/Graphic/Green" transform="translate(65.000000, 0.000000)" fill="#97C673">
                <path d="M17.619403,15.1826866 C15.9274925,14.105194 13.9927164,13.5637612 12.0566866,13.5637612 C10.1206567,13.5637612 8.18579104,14.105194 6.4940597,15.1826866 L3.39949254,12.0881194 C5.89665672,10.2550746 8.90059701,9.26507463 12.0566866,9.26507463 C15.2127761,9.26507463 18.2167164,10.2550746 20.7138806,12.0881194 L17.619403,15.1826866 Z M8.1358209,16.8244478 C9.32256716,16.1677612 10.662806,15.8186866 12.0566866,15.8186866 C13.4504776,15.8186866 14.790806,16.1677612 15.9775522,16.8244478 L12.0566866,20.7453134 L8.1358209,16.8244478 Z M12.0566866,3.18895522 L16.4640896,7.59626866 C15.0220299,7.20877612 13.5398507,7.01014925 12.0566866,7.01014925 C10.5734328,7.01014925 9.09134328,7.20877612 7.64928358,7.59626866 L12.0566866,3.18895522 Z M24.0228358,11.9662388 L12.0566866,0 L0.0905373134,11.9662388 C0.0901791045,11.9665075 0.0899104478,11.9667761 0.0895522388,11.9671343 L12.0566866,23.9342687 L24.0238209,11.9671343 C24.0234627,11.9667761 24.023194,11.9665075 24.0228358,11.9662388 Z" id="Fill-6"></path>
            </g>
            <g id="Logo/Wordmark/Silver" transform="translate(0.000000, 5.000000)" fill="#757579">
                <path d="M16.3453537,7.74006504 C16.5515105,6.40346341 17.2112811,5.73510569 18.3247801,5.73510569 C19.424283,5.73510569 20.0568642,6.40346341 20.2218356,7.74006504 L16.3453537,7.74006504 Z M18.3454302,3.30081301 C16.6269981,3.30081301 15.3004589,3.76463415 14.3659273,4.69182114 C13.4309369,5.61934959 12.9636711,6.92886179 12.9636711,8.6196748 C12.9636711,10.3107154 13.441262,11.6202276 14.3967878,12.5474146 C15.3519694,13.4749431 16.7300191,13.9385366 18.5309369,13.9385366 C19.7404589,13.9385366 20.7610325,13.7103252 21.5928872,13.2531057 C22.4243977,12.7963415 22.9847036,12.131626 23.2733461,11.2585041 L20.4279924,10.3584065 C20.3176291,10.7266179 20.101262,11.0062764 19.7783174,11.1971545 C19.4552581,11.3884878 19.0393881,11.4835285 18.5309369,11.4835285 C17.9258891,11.4835285 17.4414149,11.3338537 17.0772849,11.0334797 C16.7129254,10.7339024 16.4757935,10.2631382 16.3660038,9.62198374 L23.3971319,9.62198374 C23.4657361,9.32217886 23.500153,8.94019512 23.500153,8.4764878 C23.500153,6.83973984 23.0568642,5.56835772 22.1702868,4.66108943 C21.2835946,3.75427642 20.0084512,3.30081301 18.3454302,3.30081301 Z" id="Fill-10"></path>
                <path d="M31.6579732,3.30081301 C30.8466539,3.30081301 30.1389293,3.48156098 29.5341109,3.84282927 C28.9290631,4.20421138 28.461912,4.74645528 28.1320841,5.46921951 L28.0289484,3.50534959 L24.8948375,3.50534959 L24.8948375,13.7338862 L28.4000765,13.7338862 L28.4000765,8.33330081 C28.4000765,7.52881301 28.5718164,6.93193496 28.9155258,6.54323577 C29.2590057,6.15453659 29.7058509,5.96013008 30.2558317,5.96013008 C30.7229828,5.96013008 31.0837859,6.10695935 31.3382409,6.40004878 C31.5924665,6.69347967 31.7198088,7.18769106 31.7198088,7.88325203 L31.7198088,13.7338862 L35.2250478,13.7338862 L35.2250478,6.92157724 C35.2250478,5.76253659 34.9018738,4.86915447 34.2559847,4.24188618 C33.6096367,3.61461789 32.7437094,3.30081301 31.6579732,3.30081301" id="Fill-12"></path>
                <path d="M40.5527725,5.83743089 C40.8276482,5.68752846 41.212543,5.6124065 41.7073423,5.6124065 C42.3395793,5.6124065 42.8829063,5.7216748 43.3365201,5.93964228 C43.7900191,6.15795122 44.1817973,6.50578862 44.51174,6.98292683 L46.3260803,5.22370732 C45.8586998,4.58289431 45.2505545,4.102 44.5011855,3.78147967 C43.7519312,3.46118699 42.7863098,3.30081301 41.6043212,3.30081301 C40.5321224,3.30081301 39.6213384,3.46118699 38.8723136,3.78147967 C38.1229446,4.102 37.5630975,4.52143089 37.1920841,5.03965854 C36.8206119,5.558 36.6351052,6.11026016 36.6351052,6.69655285 C36.6351052,7.55601626 36.9616061,8.24474797 37.614608,8.76286179 C38.2673805,9.28120325 39.3636711,9.69039024 40.9032505,9.99019512 C41.5904398,10.1267805 42.0751434,10.2665528 42.3570172,10.4097398 C42.6386616,10.5529268 42.7797706,10.7199024 42.7797706,10.9107805 C42.7797706,11.1293171 42.6419885,11.303122 42.3671128,11.4325366 C42.0921224,11.5621789 41.7142256,11.6269431 41.2331931,11.6269431 C39.7899809,11.6269431 38.8071511,11.2781951 38.0344933,10.3337073 L36.3671128,12.1383415 C37.3569407,13.3385854 39.0338432,13.9385366 41.3981644,13.9385366 C42.9928107,13.9385366 44.2092161,13.6286016 45.0477247,13.0077073 C45.8860038,12.3871545 46.3055449,11.5793659 46.3055449,10.5834309 C46.3055449,9.69710569 45.9721606,8.99801626 45.3056214,8.48661789 C44.6385086,7.97521951 43.5494455,7.5901626 42.0372849,7.33099187 C41.3363289,7.19474797 40.8445124,7.05463415 40.5632122,6.91156098 C40.281109,6.76826016 40.1404589,6.59434146 40.1404589,6.38980488 C40.1404589,6.17172358 40.277782,5.98756098 40.5527725,5.83743089" id="Fill-14"></path>
                <path d="M58.8472658,11.4861463 C58.489675,11.4861463 58.2423327,11.3911057 58.1050096,11.1997724 C57.967457,11.0088943 57.898738,10.6816585 57.898738,10.2178374 L57.898738,3.52845528 L54.393499,3.52845528 L54.393499,9.56245528 C54.3243212,10.0521138 54.1672658,10.4387642 53.9195793,10.7192195 C53.57587,11.1078049 53.1153728,11.3020976 52.5378585,11.3020976 C52.0567113,11.3020976 51.6992352,11.1660813 51.4656597,10.8929106 C51.2318547,10.6203089 51.1152964,10.1497724 51.1152964,9.48152846 L51.1152964,3.52845528 L47.6099426,3.52845528 L47.6099426,10.3610244 C47.6099426,11.6023577 47.9225621,12.5125854 48.5481453,13.0920488 C49.173499,13.6720813 50.0359847,13.9616423 51.1358317,13.9616423 C52.7499809,13.9616423 53.8920459,13.3509919 54.5629446,12.1309431 C54.6863862,12.570065 54.8761377,12.9259837 55.1356405,13.194374 C55.6307839,13.7057724 56.4278776,13.9616423 57.5277247,13.9616423 C57.9123901,13.9616423 58.3041683,13.9137236 58.7029446,13.8183415 C59.1014914,13.7230732 59.4245507,13.600374 59.6718929,13.4501301 L59.899044,11.3020976 C59.5276864,11.4247967 59.1770937,11.4861463 58.8472658,11.4861463" id="Fill-16"></path>
                <path d="M4.65992352,3.1095935 C5.04458891,2.8640813 5.59456979,2.74115447 6.30940727,2.74115447 C7.1616826,2.74115447 7.89361377,2.90164228 8.50543021,3.22193496 C9.11690249,3.54256911 9.26489484,3.6222439 10.2812237,4.52188618 L12.1034799,2.43429268 C11.3199235,1.57517073 10.4710899,0.954731707 9.55709369,0.572747967 C8.64275335,0.191105691 7.53957935,0 6.2475717,0 C5.03782027,0 3.98982792,0.187804878 3.10325048,0.562504065 C2.21655832,0.937886179 1.54290631,1.45941463 1.0825239,2.12743089 C0.621797323,2.79601626 0.39166348,3.55292683 0.39166348,4.39827642 C0.39166348,5.24396748 0.601147228,5.93952846 1.02068834,6.48484553 C1.43988528,7.03061789 2.0309369,7.4635935 2.79395793,7.78388618 C3.55686424,8.10452033 4.52237094,8.38076423 5.6909369,8.61250407 C6.6393499,8.7898374 7.31621415,8.97764228 7.7218738,9.17489431 C8.12730402,9.37294309 8.33013384,9.62858537 8.33013384,9.9421626 C8.33013384,10.3378049 8.14107075,10.641252 7.763174,10.8525041 C7.38481836,11.0640976 6.81797323,11.1694959 6.06206501,11.1694959 C5.11365201,11.1694959 4.3023327,11.0195935 3.62902486,10.7194472 C2.95525813,10.4196423 2.39151052,10.0518862 1.67632887,9.35165854 L0,11.6197724 C0.701070746,12.3971707 1.53258126,12.9732195 2.49487572,13.3482602 C3.45694073,13.723187 4.70787763,13.910878 6.2475717,13.910878 C7.34718929,13.910878 8.3334608,13.7472033 9.20638623,13.4198537 C10.0793117,13.0926179 10.7632887,12.6153659 11.258088,11.9879837 C11.7530019,11.3608293 12.0004589,10.6172358 12.0004589,9.75811382 C12.0004589,8.57164228 11.5983556,7.65105691 10.7941491,6.9962439 C9.99005736,6.34165854 8.64630975,5.8439187 6.76313576,5.50291057 C5.78684512,5.32580488 5.09621415,5.13162602 4.69089866,4.91980488 C4.28523901,4.70878049 4.08263862,4.43253659 4.08263862,4.09141463 C4.08263862,3.68234146 4.27502868,3.35510569 4.65992352,3.1095935" id="Fill-8"></path>
            </g>
        </g>
    </g>
</svg>