<?xml version="1.0" encoding="UTF-8"?>
<svg width="268px" height="268px" viewBox="0 0 268 268" version="1.1" xmlns="http://www.w3.org/2000/svg" xmlns:xlink="http://www.w3.org/1999/xlink">
    <!-- Generator: Sketch 48.2 (47327) - http://www.bohemiancoding.com/sketch -->
    <title>Logo/Graphic/Green</title>
    <desc>Created with Sketch.</desc>
    <defs></defs>
    <g id="Symbols" stroke="none" stroke-width="1" fill="none" fill-rule="evenodd">
        <g id="Logo/Graphic/Green" fill="#97C673">
            <path d="M196.75,169.54 C177.857,157.508 156.252,151.462 134.633,151.462 C113.014,151.462 91.408,157.508 72.517,169.54 L37.961,134.984 C65.846,114.515 99.39,103.46 134.633,103.46 C169.876,103.46 203.42,114.515 231.305,134.984 L196.75,169.54 Z M90.85,187.873 C104.102,180.54 119.068,176.642 134.633,176.642 C150.197,176.642 165.164,180.54 178.416,187.873 L134.633,231.656 L90.85,187.873 Z M134.633,35.61 L183.849,84.825 C167.746,80.498 151.195,78.28 134.633,78.28 C118.07,78.28 101.52,80.498 85.417,84.825 L134.633,35.61 Z M268.255,133.623 L134.633,0 L1.011,133.623 C1.007,133.626 1.004,133.629 1,133.633 L134.633,267.266 L268.266,133.633 C268.262,133.629 268.259,133.626 268.255,133.623 Z" id="Fill-6"></path>
        </g>
    </g>
</svg>