<?xml version="1.0" encoding="UTF-8" standalone="no"?>
<!DOCTYPE svg PUBLIC "-//W3C//DTD SVG 1.1//EN" "http://www.w3.org/Graphics/SVG/1.1/DTD/svg11.dtd">
<svg xmlns="http://www.w3.org/2000/svg" xmlns:xl="http://www.w3.org/1999/xlink" version="1.1" viewBox="93 422 191 113" width="191pt" height="113pt" xmlns:dc="http://purl.org/dc/elements/1.1/">
  <metadata> Produced by OmniGraffle 7.4.2 
    <dc:date>2017-10-06 00:28:44 +0000</dc:date>
  </metadata>
  <defs/>
  <g stroke="none" stroke-opacity="1" stroke-dasharray="none" fill="none" fill-opacity="1">
    <title>Canvas 1</title>
    <rect fill="white" width="630" height="810"/>
    <g>
      <title>Layer 1</title>
      <path d="M 188.312 422.4053 C 240.875 422.4053 283.492 465.0213 283.492 517.5853 L 234.587 517.5853 L 224.639 517.5853 L 204.84 517.5853 L 197.11 517.5853 L 204.58 520.5253 C 203.192 528.2493 196.433 534.1133 188.312 534.1133 C 180.2 534.1133 173.447 528.2603 172.048 520.5493 L 179.574 517.5853 L 171.784 517.5853 L 151.985 517.5853 L 142.096 517.5853 L 93.132 517.5853 C 93.132 465.0213 135.749 422.4053 188.312 422.4053 M 188.312 481.2583 C 204.274 481.2583 217.848 491.5673 222.71 505.8863 L 270.993 505.8863 C 265.302 465.3213 230.455 434.1023 188.312 434.1023 C 146.169 434.1023 111.322 465.3213 105.631 505.8863 L 153.914 505.8863 C 158.776 491.5673 172.35 481.2583 188.312 481.2583" fill="white"/>
    </g>
  </g>
</svg>
