<?xml version="1.0" encoding="UTF-8"?>
<svg width="80px" height="24px" viewBox="0 0 80 24" version="1.1" xmlns="http://www.w3.org/2000/svg" xmlns:xlink="http://www.w3.org/1999/xlink">
    <!-- Generator: Sketch 48.2 (47327) - http://www.bohemiancoding.com/sketch -->
    <title>Logo/Icon/Green</title>
    <desc>Created with Sketch.</desc>
    <defs></defs>
    <g id="Symbols" stroke="none" stroke-width="1" fill="none" fill-rule="evenodd">
        <g id="Logo/Icon/Green">
            <rect id="Rectangle-2" x="0" y="0" width="80" height="24"></rect>
            <g id="Logo/Wordmark/Green" transform="translate(6.500000, 4.000000)" fill="#97C673">
                <path d="M18.2523117,8.84578862 C18.4825201,7.3182439 19.2192639,6.5544065 20.4626711,6.5544065 C21.6904493,6.5544065 22.3968317,7.3182439 22.5810497,8.84578862 L18.2523117,8.84578862 Z M20.4857304,3.77235772 C18.5668145,3.77235772 17.0855124,4.30243902 16.0419522,5.3620813 C14.9978795,6.42211382 14.4760994,7.91869919 14.4760994,9.85105691 C14.4760994,11.7836748 15.0094092,13.2802602 16.076413,14.3399024 C17.1430325,15.399935 18.6818547,15.9297561 20.6928795,15.9297561 C22.0435124,15.9297561 23.183153,15.6689431 24.1120574,15.1464065 C25.0405774,14.6243902 25.6662524,13.8647154 25.9885698,12.8668618 L22.8112581,11.8381789 C22.6880191,12.2589919 22.4464092,12.5786016 22.0857878,12.796748 C21.7250382,13.0154146 21.2606501,13.1240325 20.6928795,13.1240325 C20.0172428,13.1240325 19.4762467,12.9529756 19.0696348,12.6096911 C18.6627667,12.2673171 18.3979694,11.7293008 18.2753709,10.9965528 L26.1267973,10.9965528 C26.2034054,10.6539187 26.2418375,10.2173659 26.2418375,9.68741463 C26.2418375,7.81684553 25.7468317,6.3638374 24.7568203,5.32695935 C23.7666807,4.29060163 22.3427706,3.77235772 20.4857304,3.77235772 Z" id="Fill-10"></path>
                <path d="M35.3514034,3.77235772 C34.4454302,3.77235772 33.6551377,3.97892683 32.9797572,4.39180488 C32.3041205,4.80481301 31.7824685,5.42452033 31.4141606,6.25053659 L31.2989924,4.00611382 L27.7992352,4.00611382 L27.7992352,15.6958699 L31.7134187,15.6958699 L31.7134187,9.52377236 C31.7134187,8.60435772 31.905195,7.92221138 32.2890038,7.47798374 C32.6725564,7.0337561 33.1715335,6.81157724 33.7856788,6.81157724 C34.3073308,6.81157724 34.7102275,6.97938211 34.994369,7.31434146 C35.2782543,7.64969106 35.4204532,8.21450407 35.4204532,9.00943089 L35.4204532,15.6958699 L39.3346367,15.6958699 L39.3346367,7.91037398 C39.3346367,6.5857561 38.9737591,5.56474797 38.2525163,4.84786992 C37.530761,4.13099187 36.5638088,3.77235772 35.3514034,3.77235772" id="Fill-12"></path>
                <path d="M45.2839293,6.67134959 C45.5908738,6.50003252 46.020673,6.41417886 46.5731989,6.41417886 C47.2791969,6.41417886 47.885912,6.53905691 48.3924474,6.7881626 C48.8988547,7.03765854 49.3363403,7.43518699 49.7047763,7.9804878 L51.7307897,5.96995122 C51.2088815,5.2375935 50.5297859,4.688 49.6929904,4.32169106 C48.8563231,3.95564228 47.7780459,3.77235772 46.4581587,3.77235772 C45.26087,3.77235772 44.2438279,3.95564228 43.4074168,4.32169106 C42.5706214,4.688 41.9454589,5.16734959 41.5311606,5.75960976 C41.1163499,6.352 40.9092008,6.98315447 40.9092008,7.65320325 C40.9092008,8.63544715 41.2737935,9.42256911 42.002979,10.0146992 C42.7319082,10.6070894 43.9560994,11.0747317 45.6752964,11.4173659 C46.4426577,11.5734634 46.9839101,11.7332033 47.2986692,11.8968455 C47.6131721,12.0604878 47.7707438,12.2513171 47.7707438,12.4694634 C47.7707438,12.7192195 47.6168872,12.9178537 47.3099426,13.0657561 C47.00287,13.2139187 46.5808853,13.287935 46.0437323,13.287935 C44.4321453,13.287935 43.334652,12.8893659 42.4718509,11.8099512 L40.6099426,13.8723902 C41.7152505,15.2440976 43.5877916,15.9297561 46.2279503,15.9297561 C48.0086386,15.9297561 49.3669579,15.5755447 50.3032925,14.8659512 C51.2393709,14.156748 51.7078585,13.233561 51.7078585,12.0953496 C51.7078585,11.0824065 51.3355793,10.2834472 50.5912772,9.69899187 C49.8463346,9.11453659 48.6302141,8.67447154 46.9416348,8.37827642 C46.1589006,8.22256911 45.6097055,8.06243902 45.295587,7.89892683 C44.9805717,7.73515447 44.8235124,7.53639024 44.8235124,7.30263415 C44.8235124,7.05339837 44.9768566,6.84292683 45.2839293,6.67134959" id="Fill-14"></path>
                <path d="M65.7127801,13.1270244 C65.3134704,13.1270244 65.0372715,13.0184065 64.8839273,12.7997398 C64.730327,12.5815935 64.6535908,12.2076098 64.6535908,11.6775285 L64.6535908,4.03252033 L60.7394073,4.03252033 L60.7394073,10.9285203 C60.6621587,11.4881301 60.4867801,11.9300163 60.2101969,12.2505366 C59.8263881,12.6946341 59.3121663,12.9166829 58.6672753,12.9166829 C58.1299943,12.9166829 57.7308126,12.7612358 57.4699866,12.4490407 C57.2089044,12.1374959 57.0787476,11.5997398 57.0787476,10.8360325 L57.0787476,4.03252033 L53.1644359,4.03252033 L53.1644359,11.8411707 C53.1644359,13.2598374 53.5135277,14.3000976 54.2120956,14.9623415 C54.9104073,15.6252358 55.8735163,15.9561626 57.1016788,15.9561626 C58.9041453,15.9561626 60.1794512,15.2582764 60.9286214,13.863935 C61.0664646,14.3657886 61.2783537,14.7725528 61.5681319,15.0792846 C62.1210421,15.6637398 63.01113,15.9561626 64.2392925,15.9561626 C64.6688356,15.9561626 65.1063212,15.9013984 65.5516214,15.7923902 C65.9966654,15.6835122 66.3574149,15.5432846 66.6336138,15.3715772 L66.8872658,12.9166829 C66.4725832,13.0569106 66.081088,13.1270244 65.7127801,13.1270244" id="Fill-16"></path>
                <path d="M5.20358126,3.55382114 C5.63312428,3.27323577 6.2472696,3.13274797 7.04550478,3.13274797 C7.99721224,3.13274797 8.81453537,3.3161626 9.4977304,3.68221138 C10.1805411,4.04865041 10.3457992,4.13970732 11.4806998,5.16786992 L13.5155526,2.78204878 C12.6405813,1.80019512 11.692717,1.09112195 10.672088,0.654569106 C9.65107457,0.218406504 8.41919694,0 6.97645507,0 C5.62556597,0 4.45530784,0.214634146 3.46529637,0.642861789 C2.47515679,1.07186992 1.72291205,1.66790244 1.20881836,2.43134959 C0.694340344,3.19544715 0.437357553,4.0604878 0.437357553,5.02660163 C0.437357553,5.99310569 0.671281071,6.78803252 1.13976864,7.41125203 C1.60787189,8.03499187 2.26787954,8.52982114 3.11991969,8.89586992 C3.97183174,9.26230894 5.04998088,9.57801626 6.35487954,9.84286179 C7.41394073,10.0455285 8.16977247,10.2601626 8.62275908,10.4855935 C9.07548948,10.711935 9.30198279,11.0040976 9.30198279,11.3624715 C9.30198279,11.8146341 9.09086233,12.1614309 8.66887763,12.4028618 C8.2463805,12.6446829 7.61340344,12.7651382 6.76930593,12.7651382 C5.71024474,12.7651382 4.80427151,12.5938211 4.05241109,12.2507967 C3.30003824,11.9081626 2.67052008,11.4878699 1.87190057,10.6876098 L0,13.2797398 C0.782862333,14.1681951 1.71138241,14.8265366 2.78594455,15.2551545 C3.86025048,15.6836423 5.25713002,15.8981463 6.97645507,15.8981463 C8.20436138,15.8981463 9.3056979,15.7110894 10.2804646,15.3369756 C11.2552314,14.9629919 12.0190057,14.417561 12.5715315,13.7005528 C13.1241855,12.9838049 13.4005124,12.1339837 13.4005124,11.1521301 C13.4005124,9.7961626 12.9514971,8.74406504 12.0534665,7.99570732 C11.1555641,7.24760976 9.65504589,6.67876423 7.55216826,6.28904065 C6.46197706,6.08663415 5.69077247,5.86471545 5.23817017,5.62263415 C4.78518356,5.38146341 4.55894646,5.0657561 4.55894646,4.67590244 C4.55894646,4.20839024 4.77378203,3.8344065 5.20358126,3.55382114" id="Fill-8"></path>
            </g>
        </g>
    </g>
</svg>