<?xml version="1.0" encoding="UTF-8"?>
<svg width="523px" height="123px" viewBox="0 0 523 123" version="1.1" xmlns="http://www.w3.org/2000/svg" xmlns:xlink="http://www.w3.org/1999/xlink">
    <!-- Generator: Sketch 48.2 (47327) - http://www.bohemiancoding.com/sketch -->
    <title>Logo/Wordmark/Silver</title>
    <desc>Created with Sketch.</desc>
    <defs></defs>
    <g id="Symbols" stroke="none" stroke-width="1" fill="none" fill-rule="evenodd">
        <g id="Logo/Wordmark/Silver" fill="#757579">
            <path d="M142.477,68.002 C144.274,56.259 150.025,50.387 159.731,50.387 C169.315,50.387 174.829,56.259 176.267,68.002 L142.477,68.002 Z M159.911,29 C144.932,29 133.369,33.075 125.223,41.221 C117.073,49.37 113,60.875 113,75.73 C113,90.587 117.163,102.092 125.492,110.238 C133.818,118.387 145.83,122.46 161.528,122.46 C172.071,122.46 180.967,120.455 188.218,116.438 C195.466,112.425 200.35,106.585 202.866,98.914 L178.064,91.006 C177.102,94.241 175.216,96.698 172.401,98.375 C169.585,100.056 165.96,100.891 161.528,100.891 C156.254,100.891 152.031,99.576 148.857,96.937 C145.681,94.305 143.614,90.169 142.657,84.536 L203.945,84.536 C204.543,81.902 204.843,78.546 204.843,74.472 C204.843,60.092 200.979,48.922 193.251,40.951 C185.522,32.984 174.407,29 159.911,29 Z" id="Fill-10"></path>
            <path d="M275.952,29 C268.88,29 262.711,30.588 257.439,33.762 C252.165,36.937 248.093,41.701 245.218,48.051 L244.319,30.797 L217,30.797 L217,120.662 L247.554,120.662 L247.554,73.214 C247.554,66.146 249.051,60.902 252.047,57.487 C255.041,54.072 258.936,52.364 263.73,52.364 C267.802,52.364 270.947,53.654 273.165,56.229 C275.381,58.807 276.491,63.149 276.491,69.26 L276.491,120.662 L307.045,120.662 L307.045,60.811 C307.045,50.628 304.228,42.779 298.598,37.268 C292.964,31.757 285.416,29 275.952,29" id="Fill-12"></path>
            <path d="M353.485,51.286 C355.881,49.969 359.236,49.309 363.549,49.309 C369.06,49.309 373.796,50.269 377.75,52.184 C381.703,54.102 385.118,57.158 387.994,61.35 L403.809,45.894 C399.735,40.264 394.434,36.039 387.902,33.223 C381.371,30.409 372.954,29 362.651,29 C353.305,29 345.366,30.409 338.837,33.223 C332.305,36.039 327.425,39.724 324.191,44.277 C320.953,48.831 319.336,53.683 319.336,58.834 C319.336,66.385 322.182,72.436 327.874,76.988 C333.564,81.542 343.12,85.137 356.54,87.771 C362.53,88.971 366.755,90.199 369.212,91.457 C371.667,92.715 372.897,94.182 372.897,95.859 C372.897,97.779 371.696,99.306 369.3,100.443 C366.903,101.582 363.609,102.151 359.416,102.151 C346.836,102.151 338.269,99.087 331.534,90.789 L317,106.644 C325.628,117.189 340.245,122.46 360.854,122.46 C374.754,122.46 385.357,119.737 392.666,114.282 C399.973,108.83 403.63,101.733 403.63,92.983 C403.63,85.196 400.724,79.054 394.914,74.561 C389.099,70.068 379.606,66.685 366.425,64.408 C360.315,63.211 356.028,61.98 353.576,60.723 C351.117,59.464 349.891,57.936 349.891,56.139 C349.891,54.223 351.088,52.605 353.485,51.286" id="Fill-14"></path>
            <path d="M512.952,100.914 C509.835,100.914 507.679,100.079 506.482,98.398 C505.283,96.721 504.684,93.846 504.684,89.771 L504.684,31 L474.13,31 L474.13,84.013 C473.527,88.315 472.158,91.712 469.999,94.176 C467.003,97.59 462.989,99.297 457.955,99.297 C453.761,99.297 450.645,98.102 448.609,95.702 C446.571,93.307 445.555,89.173 445.555,83.302 L445.555,31 L415,31 L415,91.029 C415,101.935 417.725,109.932 423.178,115.023 C428.629,120.119 436.147,122.663 445.734,122.663 C459.804,122.663 469.759,117.298 475.607,106.579 C476.683,110.437 478.337,113.564 480.599,115.922 C484.915,120.415 491.863,122.663 501.45,122.663 C504.803,122.663 508.218,122.242 511.694,121.404 C515.168,120.567 517.984,119.489 520.14,118.169 L522.12,99.297 C518.883,100.375 515.827,100.914 512.952,100.914" id="Fill-16"></path>
            <path d="M40.619,27.32 C43.972,25.163 48.766,24.083 54.997,24.083 C62.426,24.083 68.806,25.493 74.139,28.307 C79.469,31.124 80.759,31.824 89.618,39.728 L105.502,21.387 C98.672,13.839 91.273,8.388 83.306,5.032 C75.336,1.679 65.72,0 54.458,0 C43.913,0 34.778,1.65 27.05,4.942 C19.321,8.24 13.449,12.822 9.436,18.691 C5.42,24.565 3.414,31.215 3.414,38.642 C3.414,46.072 5.24,52.183 8.897,56.974 C12.551,61.769 17.703,65.573 24.354,68.387 C31.004,71.204 39.42,73.631 49.606,75.667 C57.873,77.225 63.773,78.875 67.309,80.608 C70.843,82.348 72.611,84.594 72.611,87.349 C72.611,90.825 70.963,93.491 67.669,95.347 C64.371,97.206 59.43,98.132 52.841,98.132 C44.574,98.132 37.502,96.815 31.633,94.178 C25.76,91.544 20.846,88.313 14.612,82.161 L0,102.088 C6.111,108.918 13.359,113.979 21.747,117.274 C30.133,120.568 41.037,122.217 54.458,122.217 C64.043,122.217 72.64,120.779 80.249,117.903 C87.858,115.028 93.82,110.835 98.133,105.323 C102.447,99.813 104.604,93.28 104.604,85.732 C104.604,75.308 101.099,67.22 94.089,61.467 C87.08,55.716 75.367,51.343 58.952,48.347 C50.442,46.791 44.422,45.085 40.889,43.224 C37.353,41.37 35.587,38.943 35.587,35.946 C35.587,32.352 37.264,29.477 40.619,27.32" id="Fill-8"></path>
        </g>
    </g>
</svg>